<svg width="276" height="80" viewBox="0 0 276 80" fill="none" xmlns="http://www.w3.org/2000/svg">
<g clip-path="url(#clip0_2233_6849)">
<path d="M90.4004 54.7919C90.4004 46.7888 96.5275 40.5516 104.309 40.5516C112.09 40.5516 117.997 46.5128 117.997 54.626C117.997 55.288 117.997 56.0058 117.887 56.6678H96.4717C97.1895 61.1392 100.279 63.6771 104.585 63.6771C107.897 63.6771 110.436 62.0213 111.87 59.5376L116.948 62.4074C114.188 66.5469 109.883 69.0306 104.585 69.0306C96.526 69.0306 90.4004 62.7392 90.4004 54.7903V54.7919ZM96.6376 52.1965H111.816C111.264 48.4988 108.394 45.8492 104.255 45.8492C100.447 45.8492 97.5213 48.2229 96.6376 52.1965Z" fill="black"/>
<path d="M121.365 68.4802V41.1035H127.216V43.919C128.982 41.8213 131.797 40.5516 135.275 40.5516C142.008 40.5516 146.811 45.3531 146.811 52.9159V68.4802H140.684V53.4678C140.684 48.9965 138.256 46.3485 134.281 46.3485C130.306 46.3485 127.492 49.1082 127.492 53.4678V68.4802H121.365Z" fill="black"/>
<path d="M150.34 72.3981L155.859 69.8043C157.073 72.6741 159.503 74.3857 164.028 74.3857C168.996 74.3857 172.252 71.8462 172.252 66.6028V64.3392C170.21 66.8229 167.008 68.3128 163.255 68.3128C155.307 68.3128 149.51 62.2415 149.51 54.4043C149.51 46.5671 155.692 40.55 163.309 40.55C166.952 40.55 170.208 41.8741 172.25 44.4694V41.102H178.155V66.4911C178.155 75.5981 171.532 79.8477 163.971 79.8477C157.403 79.8477 152.712 77.1438 150.338 72.3966L150.34 72.3981ZM171.977 54.4043C171.977 49.657 168.555 46.1811 163.808 46.1811C159.061 46.1811 155.639 49.6586 155.639 54.4043C155.639 59.1501 159.061 62.6276 163.808 62.6276C168.555 62.6276 171.977 59.1501 171.977 54.4043Z" fill="black"/>
<path d="M182.131 54.7919C182.131 46.7888 188.092 40.5516 195.929 40.5516C199.793 40.5516 203.048 42.0973 205.092 44.7469V41.1035H210.943V68.4802H205.092V64.8368C203.104 67.4864 199.793 69.0322 195.929 69.0322C188.092 69.0322 182.131 62.795 182.131 54.7919ZM204.872 54.7919C204.872 49.8802 201.394 46.2926 196.593 46.2926C191.791 46.2926 188.258 49.8802 188.258 54.7919C188.258 59.7035 191.79 63.2368 196.593 63.2368C201.396 63.2368 204.872 59.7051 204.872 54.7919Z" fill="black"/>
<path d="M215.799 72.3981L221.318 69.8043C222.532 72.6741 224.962 74.3857 229.487 74.3857C234.455 74.3857 237.711 71.8462 237.711 66.6028V64.3392C235.669 66.8229 232.467 68.3128 228.714 68.3128C220.766 68.3128 214.969 62.2415 214.969 54.4043C214.969 46.5671 221.151 40.55 228.768 40.55C232.411 40.55 235.667 41.8741 237.709 44.4694V41.102H243.614V66.4911C243.614 75.5981 236.991 79.8477 229.43 79.8477C222.863 79.8477 218.171 77.1438 215.797 72.3966L215.799 72.3981ZM237.435 54.4043C237.435 49.657 234.013 46.1811 229.266 46.1811C224.518 46.1811 221.097 49.6586 221.097 54.4043C221.097 59.1501 224.518 62.6276 229.266 62.6276C234.013 62.6276 237.435 59.1501 237.435 54.4043Z" fill="black"/>
<path d="M247.589 54.7919C247.589 46.7888 253.717 40.5516 261.498 40.5516C269.279 40.5516 275.186 46.5128 275.186 54.626C275.186 55.288 275.186 56.0058 275.076 56.6678H253.661C254.379 61.1392 257.468 63.6771 261.774 63.6771C265.086 63.6771 267.625 62.0213 269.059 59.5376L274.137 62.4074C271.377 66.5469 267.072 69.0306 261.774 69.0306C253.715 69.0306 247.589 62.7392 247.589 54.7903V54.7919ZM253.827 52.1965H269.005C268.453 48.4988 265.583 45.8492 261.444 45.8492C257.636 45.8492 254.71 48.2229 253.827 52.1965Z" fill="black"/>
<path d="M154.932 8.16625C156.07 7.38603 157.411 6.95906 158.79 6.93602C163.376 6.93602 166.565 10.0677 166.565 14.7091V23.5527H162.376V15.1038C162.376 12.5297 160.811 11.0199 158.686 11.0199C156.393 11.0199 154.993 12.6495 154.993 15.1038V23.5481H150.787V2.40672L154.934 0V8.16625H154.932Z" fill="black"/>
<path d="M99.0111 13.4961C99.2922 13.5637 99.5886 13.6328 99.8927 13.7096C102.969 14.4914 105.319 15.5542 105.321 18.6321C105.321 21.8206 102.189 24 98.2724 24C95.0286 23.9954 92.5666 23.103 91 20.5289L94.6938 18.4048C95.4202 19.8593 96.6489 20.5873 98.3845 20.5842C100.013 20.5842 101.014 19.8577 101.014 18.7949C101.014 17.7321 99.6178 17.3988 97.2095 16.8935C93.9089 16.1655 91.7848 14.8247 91.7848 12.0278C91.7848 9.00217 94.8612 6.93642 98.2724 6.93642C101.181 6.93642 103.193 7.72125 104.983 9.96209L101.459 11.9772C100.79 10.8145 99.7806 10.2432 98.3277 10.2432C96.8747 10.2432 95.9793 10.9143 95.9793 11.8097C95.9793 12.7743 97.231 13.0722 99.0111 13.4977V13.4961Z" fill="black"/>
<path d="M107.556 23.5531L111.696 23.5485V6.93642L107.556 9.35849V23.5531Z" fill="black"/>
<path d="M122.492 6.93642C117.904 6.93642 114.605 10.3507 114.605 14.8262V23.5546L118.806 23.55V15.1057C118.806 12.6514 120.205 11.0218 122.499 11.0218C124.624 11.0218 126.19 12.5316 126.19 15.1057V23.55H130.38V14.8262C130.38 10.5734 127.147 6.93642 122.493 6.93642H122.492Z" fill="black"/>
<path d="M136.854 15.4385C136.854 18.0126 138.588 19.9693 141.162 19.9693C142.841 19.9693 144.294 19.1292 144.965 17.7315L148.544 19.8034C147.806 21.092 146.739 22.1594 145.452 22.8951C144.163 23.6308 142.703 24.0102 141.219 23.9917C136.252 23.9964 132.609 20.4162 132.609 15.44C132.609 10.4638 136.187 6.93738 141.219 6.93738C144.349 6.93738 147.146 8.56541 148.487 11.0766L144.908 13.2038C144.556 12.5157 144.019 11.9428 143.357 11.5465C142.693 11.1503 141.933 10.9491 141.162 10.9644C138.7 10.9644 136.854 12.809 136.854 15.4385Z" fill="black"/>
<path d="M0 15.3998C0 7.44745 6.44769 0.999756 14.4 0.999756H57.6C65.5523 0.999756 72 7.44745 72 15.3998V58.5998C72 66.5521 65.5523 72.9998 57.6 72.9998H14.4C6.44769 72.9998 0 66.5521 0 58.5998V15.3998Z" fill="black"/>
<path d="M62.082 32.4583C60.84 30.6928 59.1106 29.369 57.0841 28.6348C55.7808 28.1475 54.4146 27.9069 53.0232 27.9211C50.6005 27.9368 48.0316 28.6962 45.5995 30.119L23.9808 42.7748C20.6164 44.7431 18.1151 44.479 16.6011 43.9067C15.4896 43.5106 14.5448 42.7921 13.864 41.8315C13.1817 40.8693 12.817 39.739 12.8123 38.5614C12.806 37.3823 13.155 36.2472 13.8263 35.2788C14.496 34.3087 15.4346 33.5808 16.5477 33.1674C18.0475 32.581 20.5441 32.287 23.9305 34.2128L26.3658 35.6058C26.2243 36.0947 26.119 36.5978 26.0529 37.1009L25.9272 38.0536L44.3701 27.407L44.4078 27.3834C44.9015 27.0344 45.2426 26.5156 45.37 25.926C45.4973 25.3349 45.3999 24.7218 45.0933 24.2014C44.7883 23.681 44.3009 23.2958 43.7208 23.1182C43.1422 22.9405 42.5244 22.9861 41.9788 23.2471L41.9615 23.2549L35.9921 26.7215L29.911 23.2439L29.8764 23.2266C29.3246 22.9688 28.702 22.9295 28.1235 23.115C27.5449 23.3005 27.0607 23.6936 26.7604 24.2234C26.4601 24.7532 26.3721 25.3711 26.5136 25.9622C26.6535 26.5533 27.0088 27.0674 27.5135 27.407L31.2237 29.509L30.7144 29.8092L30.7034 29.8155C29.9817 30.273 29.3214 30.8201 28.7366 31.4411L26.3013 30.0372C22.3757 27.8016 18.2865 27.3221 14.79 28.6883C13.3326 29.2511 11.9916 30.1457 10.9131 31.2776C9.83459 32.408 9.00292 33.7899 8.50927 35.2772C7.67288 37.8838 7.87097 40.6744 9.0721 43.1348C10.2732 45.5952 12.35 47.4708 14.9174 48.4141C16.2223 48.9015 17.5916 49.142 18.9798 49.1279C21.4009 49.1121 23.9683 48.3512 26.4035 46.9269L26.4413 46.9033L48.0112 34.2726C51.374 32.3058 53.8769 32.5699 55.394 33.1406C56.504 33.5352 57.4504 34.2506 58.1327 35.2112C58.8135 36.1733 59.1735 37.3053 59.1766 38.4844C59.1782 39.1054 59.0839 39.7217 58.8984 40.3049C58.6248 41.113 58.1689 41.8661 57.5762 42.4792C56.9851 43.0939 56.2509 43.5797 55.4506 43.8847C53.9508 44.4696 51.4511 44.762 48.0647 42.8377L45.6294 41.4448C45.785 40.9102 45.8951 40.3631 45.9611 39.8129L46.0743 38.868L31.7095 47.279V52.8382L41.284 47.2476L41.2997 47.2381C42.0182 46.7806 42.6785 46.2335 43.2617 45.6125L45.6986 47.0165C49.6399 49.2442 53.7291 49.7221 57.2052 48.3654C59.2269 47.606 60.939 46.2634 62.1606 44.4822C63.3806 42.7025 64.0157 40.6194 63.9969 38.4624H64C63.9874 36.3007 63.3271 34.2254 62.0851 32.4599L62.082 32.4583Z" fill="white"/>
</g>
<defs>
<clipPath id="clip0_2233_6849">
<rect width="276" height="80" fill="white"/>
</clipPath>
</defs>
</svg>
